<?xml version="1.0" standalone="no"?>
<!DOCTYPE svg PUBLIC "-//W3C//DTD SVG 20010904//EN"
 "http://www.w3.org/TR/2001/REC-SVG-20010904/DTD/svg10.dtd">
<svg version="1.0" xmlns="http://www.w3.org/2000/svg"
 width="4501.000000pt" height="4500.000000pt" viewBox="0 0 4501.000000 4500.000000"
 preserveAspectRatio="xMidYMid meet">

<g transform="translate(0.000000,4500.000000) scale(0.100000,-0.100000)"
fill="#000000" stroke="none">
<path d="M4721 25473 l-630 -638 -1 -2345 0 -2345 623 -623 622 -622 1550 0
1550 -1 607 613 607 613 1 828 0 827 -1080 0 -1080 0 0 -468 0 -468 -68 -67
-68 -67 -468 0 -468 0 -84 76 -84 76 0 1642 0 1642 73 72 72 72 484 0 484 0
63 -56 64 -56 0 -489 0 -489 1080 0 1080 0 0 833 0 832 -622 623 -621 622
-1528 0 -1527 0 -631 -637z m4067 -226 l522 -522 0 -598 0 -597 -745 0 -745 0
0 399 0 399 -151 146 -151 146 -635 0 -635 0 -164 -157 -164 -157 0 -1797 0
-1797 172 -166 172 -166 621 0 620 0 157 157 158 156 2 376 3 376 743 3 742 2
0 -592 -1 -593 -515 -517 -515 -518 -1398 0 -1397 0 -527 529 -527 529 0 2202
0 2203 533 538 532 538 1385 0 1385 1 523 -523z"/>
<path d="M5078 25116 l-478 -484 0 -2144 0 -2143 473 -473 472 -472 1340 0
1340 1 458 463 457 464 0 476 0 476 -575 0 -575 0 -1 -327 -1 -328 -214 -207
-215 -208 -677 0 -677 0 -227 221 -228 221 0 1857 0 1857 219 212 219 212 694
0 693 0 208 -201 207 -201 0 -344 0 -344 575 0 575 0 0 483 0 482 -468 468
-467 467 -1325 0 -1325 0 -477 -484z"/>
<path d="M10532 25477 l-632 -632 0 -2349 0 -2348 616 -624 616 -624 1552 0
1551 0 608 608 607 607 0 2376 0 2376 -616 622 -616 621 -1527 0 -1526 0 -633
-633z m4066 -236 l522 -529 0 -2223 0 -2224 -517 -517 -518 -518 -1396 0
-1397 0 -531 533 -531 532 0 2200 0 2200 537 537 538 538 1385 0 1386 0 522
-529z"/>
<path d="M10882 25117 l-482 -482 0 -2140 1 -2140 474 -477 474 -478 1338 0
1338 0 463 463 462 462 0 2165 -1 2165 -467 473 -467 473 -1325 -1 -1325 0
-483 -483z m2704 -524 l203 -198 1 -1886 0 -1887 -214 -206 -214 -206 -676 0
-677 0 -229 223 -229 222 -1 1852 0 1851 221 216 222 216 694 0 695 0 204
-197z"/>
<path d="M11884 24458 l-164 -162 0 -1790 1 -1791 173 -167 174 -168 619 0
618 1 163 157 163 157 -1 1815 -1 1815 -153 148 -154 147 -637 0 -638 0 -163
-162z m1349 -226 l57 -58 0 -1664 0 -1664 -67 -68 -67 -68 -471 0 -470 0 -77
77 -78 78 0 1646 0 1646 69 66 69 67 489 0 489 0 57 -58z"/>
<path d="M15500 25210 l0 -900 235 0 235 0 -2 -1812 -3 -1813 -217 -3 -218 -2
0 -885 0 -885 1933 0 c1062 0 2928 -3 4145 -7 l2212 -6 0 624 0 624 623 -623
622 -622 1551 0 1552 0 512 520 c282 286 517 520 521 520 5 0 9 -236 9 -525
l0 -525 2695 0 2695 0 0 1040 0 1040 -885 0 -884 0 -3 -142 -3 -143 -527 -3
-528 -2 0 460 0 460 40 0 40 0 0 -155 0 -155 895 0 895 0 0 1205 0 1205 -895
0 -895 0 0 -160 0 -160 -40 0 -40 0 0 465 0 465 528 -2 527 -3 3 -142 3 -143
884 0 885 0 0 1040 0 1040 -2695 0 -2695 0 0 -532 0 -533 -538 538 -537 537
-1527 0 -1526 0 -631 -637 -631 -638 0 633 0 632 -1475 0 -1475 0 0 -885 0
-885 215 0 215 0 0 -1825 0 -1825 -205 0 -205 0 0 215 0 215 -885 0 -885 0 0
-215 0 -215 -527 2 -528 3 -3 1813 -2 1812 230 0 230 0 0 900 0 900 -1510 0
-1510 0 0 -900z m2680 0 l0 -560 -225 0 -225 0 0 -2150 0 -2150 865 0 865 0 0
210 0 210 550 0 550 0 0 -765 0 -765 -2350 0 -2350 0 0 555 0 555 220 0 220 0
0 2150 0 2150 -230 0 -230 0 0 560 0 560 1170 0 1170 0 0 -560z m5300 10 l0
-550 -215 0 -215 0 0 -2165 0 -2165 220 0 220 0 -2 -552 -3 -553 -1135 0
-1135 0 -3 553 -2 552 215 0 215 0 0 2165 0 2165 -215 0 -215 0 0 550 0 550
1135 0 1135 0 0 -550z m5038 27 l522 -522 0 -498 0 -497 -745 0 -745 0 0 299
0 299 -152 146 -152 146 -634 0 -634 0 -164 -156 -164 -157 0 -487 0 -486 142
-159 142 -158 1052 5 1051 6 502 -502 501 -501 0 -880 0 -880 -517 -517 -518
-518 -1395 0 -1395 0 -527 527 -528 528 0 482 0 483 745 0 745 0 0 -269 0
-269 171 -166 171 -166 621 0 622 0 157 157 158 158 0 435 0 435 -157 165
-157 165 -991 -4 -990 -3 -547 526 -548 527 0 875 0 876 533 539 532 538 1385
1 1385 0 523 -523z m5742 -187 l0 -710 -547 2 -548 3 -3 143 -3 142 -859 0
-860 0 0 -795 0 -795 370 0 370 0 0 155 0 155 565 0 565 0 -2 -867 -3 -868
-560 0 -560 0 -3 158 -3 157 -369 0 -370 0 0 -795 0 -795 860 0 859 0 3 143 3
142 548 3 547 2 0 -705 0 -705 -2360 0 -2360 0 2 558 3 557 233 3 232 2 0
2145 0 2145 -232 2 -233 3 -3 550 c-1 303 0 556 3 563 3 9 485 12 2360 12
l2355 0 0 -710z m-10440 -1498 l0 -769 624 -599 625 -599 -625 -3 -624 -2 0
-455 0 -455 -215 0 -215 0 0 1825 0 1825 215 0 215 0 0 -768z m5850 -1067 l0
-1815 -145 0 -145 0 0 743 0 742 -599 599 -598 598 -1045 -7 -1044 -8 -57 65
-57 65 0 334 0 335 73 72 72 72 483 0 483 0 65 -57 64 -58 0 -387 0 -388 1080
0 1080 0 0 455 0 455 145 0 145 0 0 -1815z m-2516 -1009 l66 -74 0 -283 0
-283 -67 -68 -67 -68 -471 0 -470 0 -82 76 -83 76 0 342 c0 189 3 346 7 349 3
4 253 7 553 7 l548 0 66 -74z"/>
<path d="M16010 25205 l0 -395 230 0 230 0 -2 -2312 -3 -2313 -217 -3 -218 -2
0 -385 0 -385 2180 0 2180 0 0 595 0 595 -385 0 -385 0 0 -210 0 -210 -1027 2
-1028 3 -3 2313 -2 2312 225 0 225 0 0 395 0 395 -1000 0 -1000 0 0 -395z"/>
<path d="M21380 25215 l0 -385 215 0 215 0 0 -2325 0 -2325 -215 0 -215 0 0
-390 0 -390 970 0 970 0 0 390 0 390 -220 0 -220 0 0 2325 0 2325 220 0 220 0
0 385 0 385 -970 0 -970 0 0 -385z"/>
<path d="M24802 25111 l-482 -489 0 -805 0 -805 496 -477 496 -477 994 3 993
3 211 -221 210 -222 -1 -498 -1 -498 -215 -207 -215 -208 -676 0 -677 0 -227
221 -228 221 0 214 0 214 -580 0 -580 0 0 -362 0 -363 477 -477 478 -478 1337
0 1337 0 460 463 460 462 1 820 0 820 -445 445 -445 445 -1057 -3 -1058 -3
-192 215 -193 215 0 544 0 544 219 211 219 212 694 0 693 0 208 -201 207 -201
0 -244 0 -244 575 0 575 0 0 383 0 382 -468 468 -467 467 -1325 0 -1326 0
-482 -489z"/>
<path d="M29710 25205 l0 -395 230 0 230 0 0 -2315 0 -2315 -230 0 -230 0 0
-390 0 -390 2195 0 2195 0 0 535 0 535 -385 0 -384 0 -3 -142 -3 -143 -1027
-3 -1028 -2 0 965 0 965 540 0 540 0 0 -160 0 -160 395 0 395 0 0 705 0 705
-395 0 -395 0 0 -160 0 -160 -540 0 -540 0 0 965 0 965 1030 0 1030 0 0 -145
0 -145 385 0 385 0 0 540 0 540 -2195 0 -2195 0 0 -395z"/>
<path d="M34610 25205 l0 -895 195 0 195 0 0 -2083 0 -2082 623 -623 622 -622
1552 0 1551 0 606 612 606 612 0 2093 0 2093 180 0 180 0 0 895 0 895 -1455 0
-1455 0 0 -895 0 -895 193 -2 192 -3 3 -1730 2 -1729 -67 -68 -67 -68 -471 0
-470 1 -83 78 -82 78 2 1719 3 1719 183 3 182 2 0 895 0 895 -1460 0 -1460 0
0 -895z m2580 0 l0 -565 -180 0 -180 0 0 -1964 0 -1964 173 -166 172 -166 620
0 620 1 158 155 157 154 0 1975 0 1975 -192 2 -193 3 0 560 0 560 1120 0 1120
0 0 -560 0 -560 -182 -3 -183 -2 0 -2186 0 -2186 -512 -519 -513 -519 -1402 0
-1401 0 -526 531 -526 532 0 2173 0 2174 -195 0 -195 0 0 565 0 565 1120 0
1120 0 0 -565z"/>
<path d="M35120 25205 l0 -395 193 -2 192 -3 3 -2229 2 -2229 472 -473 472
-474 1341 0 1342 0 456 464 457 464 2 2239 3 2238 183 3 182 2 0 395 0 395
-955 0 -955 0 0 -395 0 -395 195 0 195 0 0 -2092 -1 -2093 -214 -207 -215
-208 -677 0 -678 1 -228 222 -228 222 3 2075 3 2075 178 3 177 2 0 395 0 395
-950 0 -950 0 0 -395z"/>
</g>
</svg>
