<?xml version="1.0" encoding="UTF-8"?>
<svg id="Camada_2" data-name="Camada 2" xmlns="http://www.w3.org/2000/svg" viewBox="0 0 3683 722">
  <defs>
    <style>
      .cls-1 {
        fill: #e30613;
      }
    </style>
  </defs>
  <g id="Camada_1-2" data-name="Camada 1">
    <g>
      <path d="M63.1,63.7L.1,127.5l-.1,234.5v234.5l62.3,62.3,62.2,62.2h155l155,.1,60.7-61.3,60.7-61.3.1-82.8v-82.7h-216v93.6l-6.8,6.7-6.8,6.7h-93.6l-8.4-7.6-8.4-7.6V196.4l7.3-7.2,7.2-7.2h96.8l6.3,5.6,6.4,5.6v97.8h216V124.5l-62.2-62.3L431.7,0H126.2l-63.1,63.7ZM469.8,86.3l52.2,52.2v119.5h-149v-79.8l-15.1-14.6-15.1-14.6h-127l-16.4,15.7-16.4,15.7v359.4l17.2,16.6,17.2,16.6h124.1l15.7-15.7,15.8-15.6.2-37.6.3-37.6,74.3-.3,74.2-.2v59.2l-.1,59.3-51.5,51.7-51.5,51.8H139.4l-52.7-52.9-52.7-52.9V141.7l53.3-53.8,53.2-53.8h138.5l138.5-.1,52.3,52.3Z"/>
      <path class="cls-1" d="M98.8,99.4l-47.8,48.4v428.7l47.3,47.3,47.2,47.2h134l134-.1,45.8-46.3,45.7-46.4v-95.2h-115l-.1,32.7-.1,32.8-21.4,20.7-21.5,20.8h-135.4l-22.7-22.1-22.8-22.1V174.4l21.9-21.2,21.9-21.2h138.7l20.8,20.1,20.7,20.1v68.8h115v-96.5l-46.8-46.8-46.7-46.7H146.5l-47.7,48.4Z"/>
      <path d="M644.2,63.3l-63.2,63.2v469.7l61.6,62.4,61.6,62.4h310.3l60.8-60.8,60.7-60.7V124.3l-61.6-62.2L1012.8,0h-305.3l-63.3,63.3ZM1050.8,86.9l52.2,52.9v444.7l-51.7,51.7-51.8,51.8h-279.3l-53.1-53.3-53.1-53.2V141.5l53.7-53.7,53.8-53.8h277.1l52.2,52.9Z"/>
      <path d="M679.2,99.3l-48.2,48.2v214l.1,214,47.4,47.7,47.4,47.8h267.6l46.3-46.3,46.2-46.2v-216.5l-.1-216.5-46.7-47.3-46.7-47.3-132.5.1h-132.5l-48.3,48.3ZM949.6,151.7l20.3,19.8.1,188.6v188.7l-21.4,20.6-21.4,20.6h-135.3l-22.9-22.3-22.9-22.2-.1-185.2v-185.1l22.1-21.6,22.2-21.6h138.9l20.4,19.7Z"/>
      <path d="M779.4,165.2l-16.4,16.2v179l.1,179.1,17.3,16.7,17.4,16.8h61.9l61.8-.1,16.3-15.7,16.3-15.7-.1-181.5-.1-181.5-15.3-14.8-15.4-14.7h-127.5l-16.3,16.2ZM914.3,187.8l5.7,5.8v332.8l-6.7,6.8-6.7,6.8h-94.1l-7.7-7.7-7.8-7.8V195.3l6.9-6.6,6.9-6.7h97.8l5.7,5.8Z"/>
      <path d="M1141,90v90h47l-.2,181.2-.3,181.3-21.7.3-21.8.2v177h193.3c106.2,0,292.8.3,414.5.7l221.2.6v-124.8l62.3,62.3,62.2,62.2h310.3l51.2-52c28.2-28.6,51.7-52,52.1-52,.5,0,.9,23.6.9,52.5v52.5h539v-208h-176.9l-.3,14.2-.3,14.3-52.7.3-52.8.2v-92h8v31h179v-241h-179v32h-8v-93l52.8.2,52.7.3.3,14.2.3,14.3h176.9V1h-539v106.5l-53.8-53.8-53.7-53.7h-305.3l-63.1,63.7-63.1,63.8V1h-295v177h43v365h-41v-43h-177v43l-52.7-.2-52.8-.3-.3-181.3-.2-181.2h46V0h-302v90ZM1409,90v56h-45v430h173v-42h110v153h-470v-111h44V146h-46V34h234v56ZM1939,89v55h-43v433h44l-.2,55.2-.3,55.3h-227l-.3-55.3-.2-55.2h43V144h-43V34h227v55ZM2442.8,86.3l52.2,52.2v99.5h-149v-59.8l-15.2-14.6-15.2-14.6h-126.8l-16.4,15.6-16.4,15.7v97.3l14.2,15.9,14.2,15.8,105.2-.5,105.1-.6,50.2,50.2,50.1,50.1v176l-51.7,51.7-51.8,51.8h-279l-52.7-52.7-52.8-52.8v-96.5h149v53.8l17.1,16.6,17.1,16.6h124.3l15.7-15.7,15.8-15.8v-87l-15.7-16.5-15.7-16.5-99.1.4-99,.3-54.7-52.6-54.8-52.7v-175.1l53.3-53.9,53.2-53.8,138.5-.1h138.5l52.3,52.3ZM3017,105v71l-54.7-.2-54.8-.3-.3-14.3-.3-14.2h-171.9v159h74v-31h113l-.2,86.7-.3,86.8h-112l-.3-15.8-.3-15.7h-73.9v159h171.9l.3-14.3.3-14.2,54.8-.3,54.7-.2v141h-472l.2-55.8.3-55.7,23.3-.3,23.2-.2V147l-23.2-.2-23.3-.3-.3-55c-.1-30.3,0-55.6.3-56.3.3-.9,48.5-1.2,236-1.2h235.5v71ZM1973,254.8v76.9l62.4,59.9,62.5,59.9-62.5.3-62.4.2v91h-43V178h43v76.8ZM2558,361.5v181.5h-29v-148.5l-59.9-59.9-59.8-59.8-104.5.7-104.4.8-5.7-6.5-5.7-6.5v-66.9l7.3-7.2,7.2-7.2h96.6l6.5,5.7,6.4,5.8v77.5h216v-91h29v181.5ZM2306.4,462.4l6.6,7.4v56.6l-6.7,6.8-6.7,6.8h-94.1l-8.2-7.6-8.3-7.6v-34.2c0-18.9.3-34.6.7-34.9.3-.4,25.3-.7,55.3-.7h54.8l6.6,7.4Z"/>
      <path d="M1192,90.5v39.5h46l-.2,231.2-.3,231.3-21.7.3-21.8.2v77h436v-119h-77v42l-102.7-.2-102.8-.3-.3-231.3-.2-231.2h45V51h-200v39.5Z"/>
      <path d="M1729,89.5v38.5h43v465h-43v78h194v-78h-44V128h44V51h-194v38.5Z"/>
      <path d="M2071.2,99.9l-48.2,48.9v161l49.6,47.7,49.6,47.7,99.4-.3,99.3-.3,21.1,22.1,21,22.2-.1,49.8-.1,49.8-21.5,20.7-21.5,20.8h-135.3l-22.7-22.1-22.8-22.1v-42.8h-116v72.5l47.7,47.7,47.8,47.8h267.4l46-46.3,46-46.2.1-82v-82l-44.5-44.5-44.5-44.5-105.7.3-105.8.3-19.2-21.5-19.3-21.5v-108.8l21.9-21.1,21.9-21.2h138.7l20.8,20.1,20.7,20.1v48.8h115v-76.5l-46.8-46.8-46.7-46.7h-265.1l-48.2,48.9Z"/>
      <path d="M2562,90.5v39.5h46v463h-46v78h439v-107h-76.9l-.3,14.2-.3,14.3-102.7.3-102.8.2v-193h108v32h79v-141h-79v32h-108v-193h206v29h77V51h-439v39.5Z"/>
      <path d="M3052,90.5v89.5h39v416.5l62.3,62.3,62.2,62.2h310.3l60.6-61.2,60.6-61.2V180h36V1h-291v179l19.3.2,19.2.3.3,173,.2,172.9-6.7,6.8-6.7,6.8h-47.1l-47-.1-8.3-7.8-8.2-7.8.2-171.9.3-171.9,18.3-.3,18.2-.2V1h-292v89.5ZM3310,90.5v56.5h-36v392.8l17.3,16.6,17.2,16.6h62l62-.1,15.8-15.5,15.7-15.4V147l-19.2-.2-19.3-.3V34.5h224v112l-18.2.3-18.3.2v437.2l-51.2,51.9-51.3,51.9h-280.3l-52.6-53.1-52.6-53.2V147h-39V34h224v56.5Z"/>
      <path d="M3103,90.5v39.5l19.3.2,19.2.3.3,222.9.2,222.9,47.2,47.3,47.2,47.4h268.3l45.6-46.4,45.7-46.4.2-223.9.3-223.8,18.3-.3,18.2-.2V51h-191v79h39v209.2l-.1,209.3-21.4,20.7-21.5,20.8h-67.7l-67.8-.1-22.8-22.2-22.8-22.2.3-207.5.3-207.5,17.8-.3,17.7-.2V51h-190v39.5Z"/>
    </g>
  </g>
</svg>