<?xml version="1.0" encoding="UTF-8"?>
<svg id="Camada_2" data-name="Camada 2" xmlns="http://www.w3.org/2000/svg" viewBox="0 0 3683 722">
  <defs>
    <style>
      .cls-1 {
        fill: #fff;
      }

      .cls-2 {
        fill: red;
      }
    </style>
  </defs>
  <g id="Camada_1-2" data-name="Camada 1">
    <g>
      <path d="M1050.8,86.4l-52.2-52.9h-277.1l-53.8,53.8-53.7,53.7v440l53.1,53.2,53.1,53.3h279.3l51.8-51.8,51.7-51.7V139.3l-52.2-52.9ZM937.75,556.7l-16.3,15.7-61.8.1h-61.9l-17.4-16.8-17.3-16.7-.1-179.1v-179l16.4-16.2,16.3-16.2h127.5l15.4,14.7,15.3,14.8.1,181.5.1,181.5-16.3,15.7Z"/>
      <path class="cls-1" d="M2781.5,1h-269.5v106.5l-53.8-53.8L2404.5,0h-305.3l-63.1,63.7-63.1,63.8V1h-295v177h43v365h-41v-43h-177v43l-52.7-.2-52.8-.3-.3-181.3-.2-181.2h46V0h-302v180h47l-.2,181.2-.3,181.3-21.7.3-21.8.2v177h193.3c106.2,0,292.8.3,414.5.7l221.2.6v-124.8l62.3,62.3,62.2,62.2h310.3l51.2-52c28.2-28.6,51.7-52,52.1-52,.5,0,.9,23.6.9,52.5v52.5h539v-208h-176.9l-.3,14.2-.3,14.3-52.7.3-52.8.2v-92h8v31h179v-241h-179v32h-8v-93l52.8.2,52.7.3.3,14.2.3,14.3h176.9V1h-269.5ZM2035.4,451.8l-62.4.2v91h-43V178h43v153.7l62.4,59.9,62.5,59.9-62.5.3ZM2313,498.1v28.3l-6.7,6.8-6.7,6.8h-94.1l-8.2-7.6-8.3-7.6v-34.2c0-18.9.3-34.6.7-34.9.3-.4,25.3-.7,55.3-.7h54.8l6.6,7.4,6.6,7.4v28.3ZM2558,361.5v181.5h-29v-148.5l-59.9-59.9-59.8-59.8-104.5.7-104.4.8-5.7-6.5-5.7-6.5v-66.9l7.3-7.2,7.2-7.2h96.6l6.5,5.7,6.4,5.8v77.5h216v-91h29v181.5Z"/>
      <path class="cls-1" d="M1074.4,62.1L1012.8,0h-305.3l-63.3,63.3-63.2,63.2v469.7l61.6,62.4,61.6,62.4h310.3l60.8-60.8,60.7-60.7V124.3l-61.6-62.2ZM1103,362.1v222.4l-51.7,51.7-51.8,51.8h-279.3l-53.1-53.3-53.1-53.2V141.5l53.7-53.7,53.8-53.8h277.1l52.2,52.9,52.2,52.9v222.3Z"/>
      <polygon class="cls-1" points="63.1 63.7 .1 127.5 0 362 0 596.5 62.3 658.8 124.5 721 279.5 721 434.5 721.1 495.2 659.8 555.9 598.5 556 515.7 556 433 448 433 340 433 340 479.8 340 526.6 333.2 533.3 326.4 540 279.6 540 232.8 540 224.4 532.4 216 524.8 216 360.6 216 196.4 223.3 189.2 230.5 182 278.9 182 327.3 182 333.6 187.6 340 193.2 340 242.1 340 291 448 291 556 291 556 207.7 556 124.5 493.8 62.2 431.7 0 278.9 0 126.2 0 63.1 63.7"/>
      <polygon points="469.8 86.3 522 138.5 522 198.3 522 258 447.5 258 373 258 373 218.1 373 178.2 357.9 163.6 342.8 149 279.3 149 215.8 149 199.4 164.7 183 180.4 183 360.1 183 539.8 200.2 556.4 217.4 573 279.5 573 341.5 573 357.2 557.3 373 541.7 373.2 504.1 373.5 466.5 447.8 466.2 522 466 522 525.2 521.9 584.5 470.4 636.2 418.9 688 279.1 688 139.4 688 86.7 635.1 34 582.2 34 362 34 141.7 87.3 87.9 140.5 34.1 279 34.1 417.5 34 469.8 86.3"/>
      <path class="cls-2" d="M98.8,99.4l-47.8,48.4v428.7l47.3,47.3,47.2,47.2h134l134-.1,45.8-46.3,45.7-46.4v-95.2h-115l-.1,32.7-.1,32.8-21.4,20.7-21.5,20.8h-135.4l-22.7-22.1-22.8-22.1V174.4l21.9-21.2,21.9-21.2h138.7l20.8,20.1,20.7,20.1v68.8h115v-96.5l-46.8-46.8-46.7-46.7H146.5l-47.7,48.4Z"/>
      <polygon class="cls-1" points="992.5 50.9 860 51 727.5 51 679.2 99.3 631 147.5 631 361.5 631.1 575.5 678.5 623.2 725.9 671 859.7 671 993.5 671 1039.8 624.7 1086 578.5 1086 362 1085.9 145.5 1039.2 98.2 992.5 50.9"/>
      <polygon points="970.5 548.75 949.1 569.35 927.7 589.95 860.1 589.95 792.4 589.95 769.5 567.65 746.6 545.45 746.5 360.25 746.5 175.15 768.6 153.55 790.8 131.95 860.2 131.95 929.7 131.95 950.1 151.65 970.4 171.45 970.5 360.05 970.5 548.75"/>
      <polygon class="cls-1" points="934.17 164.87 926.33 158.32 859.13 158.32 791.92 158.32 782.44 165.89 772.96 173.34 772.96 359.26 772.96 545.17 783.68 553.98 794.26 562.68 858.85 562.68 923.58 562.68 932.79 555 942 547.32 942 359.37 942 171.42 934.17 164.87"/>
      <polygon points="1409 90 1409 146 1386.5 146 1364 146 1364 361 1364 576 1450.5 576 1537 576 1537 555 1537 534 1592 534 1647 534 1647 610.5 1647 687 1412 687 1177 687 1177 631.5 1177 576 1199 576 1221 576 1221 361 1221 146 1198 146 1175 146 1175 90 1175 34 1292 34 1409 34 1409 90"/>
      <polygon points="1939 89 1939 144 1917.5 144 1896 144 1896 360.5 1896 577 1918 577 1940 577 1939.8 632.2 1939.5 687.5 1826 687.5 1712.5 687.5 1712.2 632.2 1712 577 1733.5 577 1755 577 1755 360.5 1755 144 1733.5 144 1712 144 1712 89 1712 34 1825.5 34 1939 34 1939 89"/>
      <polygon points="2442.8 86.3 2495 138.5 2495 188.3 2495 238 2420.5 238 2346 238 2346 208.1 2346 178.2 2330.8 163.6 2315.6 149 2252.2 149 2188.8 149 2172.4 164.6 2156 180.3 2156 229 2156 277.6 2170.2 293.5 2184.4 309.3 2289.6 308.8 2394.7 308.2 2444.9 358.4 2495 408.5 2495 496.5 2495 584.5 2443.3 636.2 2391.5 688 2252 688 2112.5 688 2059.8 635.3 2007 582.5 2007 534.3 2007 486 2081.5 486 2156 486 2156 512.9 2156 539.8 2173.1 556.4 2190.2 573 2252.3 573 2314.5 573 2330.2 557.3 2346 541.5 2346 498 2346 454.5 2330.3 438 2314.6 421.5 2215.5 421.9 2116.5 422.2 2061.8 369.6 2007 316.9 2007 229.4 2007 141.8 2060.3 87.9 2113.5 34.1 2252 34 2390.5 34 2442.8 86.3"/>
      <path d="M3017,105v71l-54.7-.2-54.8-.3-.3-14.3-.3-14.2h-171.9v159h74v-31h113l-.2,86.7-.3,86.8h-112l-.3-15.8-.3-15.7h-73.9v159h171.9l.3-14.3.3-14.2,54.8-.3,54.7-.2v141h-472l.2-55.8.3-55.7,23.3-.3,23.2-.2V147l-23.2-.2-23.3-.3-.3-55c-.1-30.3,0-55.6.3-56.3.3-.9,48.5-1.2,236-1.2h235.5v71Z"/>
      <path class="cls-1" d="M1192,90.5v39.5h46l-.2,231.2-.3,231.3-21.7.3-21.8.2v77h436v-119h-77v42l-102.7-.2-102.8-.3-.3-231.3-.2-231.2h45V51h-200v39.5Z"/>
      <path class="cls-1" d="M1729,89.5v38.5h43v465h-43v78h194v-78h-44V128h44V51h-194v38.5Z"/>
      <path class="cls-1" d="M2071.2,99.9l-48.2,48.9v161l49.6,47.7,49.6,47.7,99.4-.3,99.3-.3,21.1,22.1,21,22.2-.1,49.8-.1,49.8-21.5,20.7-21.5,20.8h-135.3l-22.7-22.1-22.8-22.1v-42.8h-116v72.5l47.7,47.7,47.8,47.8h267.4l46-46.3,46-46.2.1-82v-82l-44.5-44.5-44.5-44.5-105.7.3-105.8.3-19.2-21.5-19.3-21.5v-108.8l21.9-21.1,21.9-21.2h138.7l20.8,20.1,20.7,20.1v48.8h115v-76.5l-46.8-46.8-46.7-46.7h-265.1l-48.2,48.9Z"/>
      <path class="cls-1" d="M2562,90.5v39.5h46v463h-46v78h439v-107h-76.9l-.3,14.2-.3,14.3-102.7.3-102.8.2v-193h108v32h79v-141h-79v32h-108v-193h206v29h77V51h-439v39.5Z"/>
      <polygon class="cls-1" points="3052 90.5 3052 180 3071.5 180 3091 180 3091 388.3 3091 596.5 3153.3 658.8 3215.5 721 3370.7 721 3525.8 721 3586.4 659.8 3647 598.6 3647 389.3 3647 180 3665 180 3683 180 3683 90.5 3683 1 3537.5 1 3392 1 3392 90.5 3392 180 3411.3 180.2 3430.5 180.5 3430.8 353.5 3431 526.4 3424.3 533.2 3417.6 540 3370.5 540 3323.5 539.9 3315.2 532.1 3307 524.3 3307.2 352.4 3307.5 180.5 3325.8 180.2 3344 180 3344 90.5 3344 1 3198 1 3052 1 3052 90.5"/>
      <polygon points="3310 90.5 3310 147 3292 147 3274 147 3274 343.4 3274 539.8 3291.3 556.4 3308.5 573 3370.5 573 3432.5 572.9 3448.3 557.4 3464 542 3464 344.5 3464 147 3444.8 146.8 3425.5 146.5 3425.5 90.5 3425.5 34.5 3537.5 34.5 3649.5 34.5 3649.5 90.5 3649.5 146.5 3631.3 146.8 3613 147 3613 365.6 3613 584.2 3561.8 636.1 3510.5 688 3370.3 688 3230.2 688 3177.6 634.9 3125 581.7 3125 364.4 3125 147 3105.5 147 3086 147 3086 90.5 3086 34 3198 34 3310 34 3310 90.5"/>
      <path class="cls-1" d="M3103,90.5v39.5l19.3.2,19.2.3.3,222.9.2,222.9,47.2,47.3,47.2,47.4h268.3l45.6-46.4,45.7-46.4.2-223.9.3-223.8,18.3-.3,18.2-.2V51h-191v79h39v209.2l-.1,209.3-21.4,20.7-21.5,20.8h-67.7l-67.8-.1-22.8-22.2-22.8-22.2.3-207.5.3-207.5,17.8-.3,17.7-.2V51h-190v39.5Z"/>
    </g>
  </g>
</svg>