<?xml version="1.0" encoding="UTF-8"?>
<svg id="Camada_2" data-name="Camada 2" xmlns="http://www.w3.org/2000/svg" viewBox="0 0 650.7 134.69">
  <defs>
    <style>
      .cls-1 {
        fill: #fff;
      }

      .cls-2 {
        fill: red;
      }
    </style>
  </defs>
  <g id="Camada_1-2" data-name="Camada 1">
    <g>
      <g>
        <path d="M25.88,134.69l-1.77-1.69c-2.58-2.46-10.3-10.12-22.32-22.14l-1.79-1.79V24.75L24.75,0h46.37l21.59,21.79v34h-32.36v-19.85l-3.41-3.41h-19.38l-5.02,5.12v59.19l5.54,5.65h18.29c.58-.57,1.27-1.24,2.07-2.02.57-.56,1.28-1.24,1.91-1.87v-22.35h32.36v35.96l-22.67,22.46H25.88Z"/>
        <path d="M129,134.69l-24.05-24.05V23.37L128.11,0h47.78l23.16,23.37v87.28l-24.24,24.04h-45.81ZM161.85,102.5l4.85-4.95v-60.87l-4.42-4.32h-20.68l-4.29,4.29v60.95l4.71,4.91h19.83Z"/>
        <polygon points="211.3 134.69 211.3 0 243.66 0 243.66 102.5 298.06 102.5 298.06 134.69 211.3 134.69"/>
        <rect x="310.3" width="32.54" height="134.69"/>
        <polygon points="377.75 134.69 355.08 112.23 355.08 81.16 387.44 81.16 387.44 98.57 391.38 102.5 411.15 102.5 415.08 98.57 415.08 81.77 413.42 80.11 373.91 80.11 355.08 61.5 355.08 21.79 376.67 0 424.61 0 446.39 21.78 446.39 49.15 413.86 49.15 413.86 35.9 410.4 32.36 390.9 32.36 387.44 35.9 387.44 49.88 389.04 51.43 428.94 51.43 447.44 69.49 447.44 112.23 424.77 134.69 377.75 134.69"/>
        <polygon points="459.68 134.69 459.68 0 547.14 0 547.14 32.36 492.04 32.36 492.04 50.73 531.05 50.73 531.05 79.41 492.04 79.41 492.04 102.5 547.32 102.5 547.32 134.69 459.68 134.69"/>
        <polygon points="581.87 134.69 559.56 112.38 559.56 0 591.75 0 591.75 97.52 596.73 102.5 614.05 102.5 619.04 97.52 619.04 0 650.7 0 650.7 112.38 628.39 134.69 581.87 134.69"/>
      </g>
      <g>
        <path class="cls-1" d="M27.11,131.63l-.89-.85c-2.56-2.45-10.26-10.09-22.27-22.09l-.9-.9V26.02L26.02,3.06h43.83l19.8,19.99v29.68h-26.24v-18.06l-5.2-5.2h-21.93l-6.8,6.93v61.69l7.32,7.46h20.84c.7-.7,1.68-1.66,2.94-2.89.88-.86,2.07-2.01,2.84-2.79v-20.56h26.24v31.62l-20.87,20.68H27.11Z"/>
        <path class="cls-1" d="M130.27,131.63l-22.26-22.26V24.63l21.38-21.57h45.23l21.38,21.57v84.75l-22.44,22.25h-43.28ZM163.14,105.56l6.62-6.76v-63.41l-6.23-6.1h-23.2l-6.08,6.08v63.45l6.47,6.74h22.42Z"/>
        <polygon class="cls-1" points="214.36 131.63 214.36 3.06 240.6 3.06 240.6 105.56 295 105.56 295 131.63 214.36 131.63"/>
        <rect class="cls-1" x="313.37" y="3.06" width="26.41" height="128.56"/>
        <polygon class="cls-1" points="379.01 131.63 358.15 110.95 358.15 84.22 384.38 84.22 384.38 99.83 390.11 105.56 412.41 105.56 418.14 99.83 418.14 80.51 414.69 77.05 375.17 77.05 358.15 60.23 358.15 23.05 377.95 3.06 423.35 3.06 443.33 23.05 443.33 46.09 416.92 46.09 416.92 34.66 411.69 29.3 389.61 29.3 384.38 34.66 384.38 51.18 387.81 54.49 427.7 54.49 444.38 70.78 444.38 110.95 423.51 131.63 379.01 131.63"/>
        <polygon class="cls-1" points="462.75 131.63 462.75 3.06 544.08 3.06 544.08 29.3 488.98 29.3 488.98 53.79 527.99 53.79 527.99 76.35 488.98 76.35 488.98 105.56 544.26 105.56 544.26 131.63 462.75 131.63"/>
        <polygon class="cls-1" points="583.13 131.63 562.62 111.12 562.62 3.06 588.69 3.06 588.69 98.79 595.47 105.56 615.32 105.56 622.1 98.79 622.1 3.06 647.63 3.06 647.63 111.12 627.13 131.63 583.13 131.63"/>
      </g>
      <g>
        <path class="cls-2" d="M86.58,24.31v25.36h-20.12v-16.27l-7-7h-24.49l-8.57,8.75v64.19l9.1,9.27h23.44c.87-1.05,6.65-6.47,7.52-7.52v-18.72h20.12v27.29l-19.07,18.89H28.34c-3.85-3.67-18.37-18.19-22.21-22.04V27.29L27.29,6.12h41.28l18.02,18.19Z"/>
        <path d="M192.93,108.1l-20.64,20.47h-40.76l-20.47-20.47V25.89l19.59-19.77h42.68l19.59,19.77v82.21ZM139.06,26.24l-7.87,7.87v65.94l8.22,8.57h25.01l8.4-8.57V34.11l-8.05-7.87h-25.71Z"/>
        <path d="M237.54,108.62h54.4v19.94h-74.52V6.12h20.12v102.5Z"/>
        <path d="M336.72,128.56h-20.29V6.12h20.29v122.44Z"/>
        <path d="M440.27,43.03h-20.29v-9.62l-7-7.17h-24.66l-7,7.17v19.07l5.25,5.07h39.88l14.87,14.52v37.61l-19.07,18.89h-41.98l-19.07-18.89v-22.39h20.12v13.82l7.52,7.52h24.84l7.52-7.52v-21.86l-5.25-5.25h-39.53l-15.22-15.04V24.31l18.02-18.19h42.85l18.19,18.19v18.72Z"/>
        <path d="M541.02,26.24h-55.1v30.61h39.01v16.44h-39.01v35.33h55.27v19.94h-75.39V6.12h75.22v20.12Z"/>
        <path d="M644.57,109.85l-18.72,18.72h-41.46l-18.72-18.72V6.12h19.94v93.93l8.57,8.57h22.39l8.57-8.57V6.12h19.42v103.73Z"/>
      </g>
    </g>
  </g>
</svg>