<?xml version="1.0" encoding="UTF-8"?>
<svg id="Camada_2" data-name="Camada 2" xmlns="http://www.w3.org/2000/svg" viewBox="0 0 127.27 155.55">
  <defs>
    <style>
      .cls-white { fill: #fff; }
      .cls-black { fill: #010101; }
    </style>
    <linearGradient id="gold-grad" x1="0%" y1="0%" x2="100%" y2="100%">
      <stop offset="0%" style="stop-color:#9A7B4F;stop-opacity:1" /> <!-- Muted Gold -->
      <stop offset="45%" style="stop-color:#E2C799;stop-opacity:1" /> <!-- Champagne -->
      <stop offset="100%" style="stop-color:#C5A059;stop-opacity:1" /> <!-- Silk Gold -->
    </linearGradient>
    <style>
      .cls-gold { fill: url(#gold-grad); }
    </style>
  </defs>
  <g id="Camada_1-2" data-name="Camada 1">
    <g>
      <polygon class="cls-white" points="36.08 155.55 0 119.48 0 0 127.27 0 127.27 121.73 93.44 155.55 36.08 155.55"/>
      <polygon class="cls-black" points="37.54 152.02 3.54 118.01 3.54 3.54 123.73 3.54 123.73 120.26 91.98 152.02 37.54 152.02"/>
      <polygon class="cls-black" points="113.13 7.07 14.14 7.07 7.07 7.07 7.07 14.14 7.07 106.55 7.07 116.55 14.14 123.62 31.93 141.41 39 148.48 49 148.48 80.52 148.48 90.52 148.48 97.59 141.41 113.13 125.87 120.2 118.8 120.2 108.8 120.2 14.14 120.2 7.07 113.13 7.07"/>
      <polygon class="cls-gold" points="113.13 115.87 87.59 141.41 41.93 141.41 14.14 113.62 14.14 14.14 113.13 14.14 113.13 115.87"/>
      <g>
        <path class="cls-black" d="M48.07,127.21l-2.07-1.96c-1.83-1.74-7.24-7.06-15.63-15.4l-2.09-2.08.11-60.72,19.03-18.77,34.82.06,16.74,16.79-.05,27.56-28.39-.05.03-15.41-.7-.69-11.15-.02-1.84,1.85-.07,38.64,2.2,2.23,10.4.02c.19-.19.92-.88,1.08-1.04l.03-17.12,28.39.05-.05,28.93-17.58,17.18-33.22-.06Z"/>
        <path class="cls-white" d="M49.03,124.85l-1.38-1.31c-1.81-1.72-7.2-7.03-15.59-15.36l-1.4-1.39.11-58.76,17.63-17.39,32.84.06,15.35,15.4-.04,24.23-23.62-.04.03-14.03-2.09-2.08-13.14-.02-3.23,3.25-.07,40.57,3.58,3.63,12.38.02c.37-.36.81-.78,1.31-1.26.36-.34.79-.76,1.19-1.15l.03-15.75,23.62.04-.05,25.58-16.17,15.8-31.28-.06Z"/>
        <path class="cls-black" d="M50,122.49l-.69-.65c-1.8-1.7-7.17-7-15.55-15.32l-.7-.69.1-56.8,16.23-16,30.85.06,13.96,14.01-.04,20.89-18.84-.03.02-12.64-3.49-3.46-15.13-.03-4.62,4.65-.08,42.5,4.97,5.03,14.36.03c.49-.48,1.15-1.12,1.99-1.93.59-.57,1.38-1.32,1.91-1.85l.03-14.37,18.84.03-.04,22.24-14.76,14.43-29.34-.05Z"/>
        <path class="cls-gold" d="M91.82,48.04l-.03,17.55-14.07-.03.02-11.26-4.88-4.85-17.12-.03-6,6.04-.08,44.43,6.35,6.43,16.39.03c.61-.73,4.66-4.47,5.27-5.2l.02-12.95,14.07.03-.03,18.89-13.36,13.05-27.4-.05c-2.69-2.55-12.82-12.61-15.51-15.28l.1-54.84,14.83-14.62,28.87.05,12.58,12.61Z"/>
      </g>
    </g>
  </g>
</svg>