<?xml version="1.0" encoding="UTF-8"?>
<svg id="Camada_2" data-name="Camada 2" xmlns="http://www.w3.org/2000/svg" viewBox="0 0 650.7 256.37">
  <defs>
    <style>
      .cls-1, .cls-2 {
        fill: #1d1d1b;
      }

      .cls-3, .cls-4 {
        fill: #fff;
      }

      .cls-5 {
        fill: #e52521;
      }

      .cls-6 {
        fill: #010101;
      }

      .cls-2 {
        letter-spacing: .5em;
      }

      .cls-2, .cls-4 {
        font-family: BebasNeue-Regular, 'Bebas Neue';
        font-size: 22.32px;
      }

      .cls-4 {
        letter-spacing: .2em;
      }
    </style>
  </defs>
  <g id="Camada_1-2" data-name="Camada 1">
    <g>
      <g>
        <g>
          <path class="cls-6" d="M25.88,134.69l-1.77-1.69c-2.58-2.46-10.3-10.12-22.32-22.14l-1.79-1.79V24.75L24.75,0h46.37l21.59,21.79v34h-32.36v-19.85l-3.41-3.41h-19.38l-5.02,5.12v59.19l5.54,5.65h18.29c.58-.57,1.27-1.24,2.07-2.02.57-.56,1.28-1.24,1.91-1.87v-22.35h32.36v35.96l-22.67,22.46H25.88Z"/>
          <path class="cls-6" d="M129,134.69l-24.05-24.05V23.37L128.11,0h47.78l23.16,23.37v87.28l-24.24,24.04h-45.81ZM161.85,102.5l4.85-4.95v-60.87l-4.42-4.32h-20.68l-4.29,4.29v60.95l4.71,4.91h19.83Z"/>
          <polygon class="cls-6" points="211.3 134.69 211.3 0 243.66 0 243.66 102.5 298.06 102.5 298.06 134.69 211.3 134.69"/>
          <rect class="cls-6" x="310.3" width="32.54" height="134.69"/>
          <polygon class="cls-6" points="377.75 134.69 355.08 112.23 355.08 81.16 387.44 81.16 387.44 98.57 391.38 102.5 411.15 102.5 415.08 98.57 415.08 81.77 413.42 80.11 373.91 80.11 355.08 61.5 355.08 21.79 376.67 0 424.61 0 446.39 21.78 446.39 49.15 413.86 49.15 413.86 35.9 410.4 32.36 390.9 32.36 387.44 35.9 387.44 49.88 389.04 51.43 428.94 51.43 447.44 69.49 447.44 112.23 424.77 134.69 377.75 134.69"/>
          <polygon class="cls-6" points="459.68 134.69 459.68 0 547.14 0 547.14 32.36 492.04 32.36 492.04 50.73 531.05 50.73 531.05 79.41 492.04 79.41 492.04 102.5 547.32 102.5 547.32 134.69 459.68 134.69"/>
          <polygon class="cls-6" points="581.87 134.69 559.56 112.38 559.56 0 591.75 0 591.75 97.52 596.73 102.5 614.05 102.5 619.04 97.52 619.04 0 650.7 0 650.7 112.38 628.39 134.69 581.87 134.69"/>
        </g>
        <g>
          <path class="cls-3" d="M27.11,131.63l-.89-.85c-2.56-2.45-10.26-10.09-22.27-22.09l-.9-.9V26.02L26.02,3.06h43.83l19.8,19.99v29.68h-26.24v-18.06l-5.2-5.2h-21.93l-6.8,6.93v61.69l7.32,7.46h20.84c.7-.7,1.68-1.66,2.94-2.89.88-.86,2.07-2.01,2.84-2.79v-20.56h26.24v31.62l-20.87,20.68H27.11Z"/>
          <path class="cls-3" d="M130.27,131.63l-22.26-22.26V24.63l21.38-21.57h45.23l21.38,21.57v84.75l-22.44,22.25h-43.28ZM163.14,105.56l6.62-6.76v-63.41l-6.23-6.1h-23.2l-6.08,6.08v63.45l6.47,6.74h22.42Z"/>
          <polygon class="cls-3" points="214.36 131.63 214.36 3.06 240.6 3.06 240.6 105.56 295 105.56 295 131.63 214.36 131.63"/>
          <rect class="cls-3" x="313.37" y="3.06" width="26.41" height="128.56"/>
          <polygon class="cls-3" points="379.01 131.63 358.15 110.95 358.15 84.22 384.38 84.22 384.38 99.83 390.11 105.56 412.41 105.56 418.14 99.83 418.14 80.51 414.69 77.05 375.17 77.05 358.15 60.23 358.15 23.05 377.95 3.06 423.35 3.06 443.33 23.05 443.33 46.09 416.92 46.09 416.92 34.66 411.69 29.3 389.61 29.3 384.38 34.66 384.38 51.18 387.81 54.49 427.7 54.49 444.38 70.78 444.38 110.95 423.51 131.63 379.01 131.63"/>
          <polygon class="cls-3" points="462.75 131.63 462.75 3.06 544.08 3.06 544.08 29.3 488.98 29.3 488.98 53.79 527.99 53.79 527.99 76.35 488.98 76.35 488.98 105.56 544.26 105.56 544.26 131.63 462.75 131.63"/>
          <polygon class="cls-3" points="583.13 131.63 562.62 111.12 562.62 3.06 588.69 3.06 588.69 98.79 595.47 105.56 615.32 105.56 622.1 98.79 622.1 3.06 647.63 3.06 647.63 111.12 627.13 131.63 583.13 131.63"/>
        </g>
        <g>
          <path class="cls-5" d="M86.58,24.31v25.36h-20.12v-16.27l-7-7h-24.49l-8.57,8.75v64.19l9.1,9.27h23.44c.87-1.05,6.65-6.47,7.52-7.52v-18.72h20.12v27.29l-19.07,18.89H28.34c-3.85-3.67-18.37-18.19-22.21-22.04V27.29L27.29,6.12h41.28l18.02,18.19Z"/>
          <path class="cls-6" d="M192.93,108.1l-20.64,20.47h-40.76l-20.47-20.47V25.89l19.59-19.77h42.68l19.59,19.77v82.21ZM139.06,26.24l-7.87,7.87v65.94l8.22,8.57h25.01l8.4-8.57V34.11l-8.05-7.87h-25.71Z"/>
          <path class="cls-6" d="M237.54,108.62h54.4v19.94h-74.52V6.12h20.12v102.5Z"/>
          <path class="cls-6" d="M336.72,128.56h-20.29V6.12h20.29v122.44Z"/>
          <path class="cls-6" d="M440.27,43.03h-20.29v-9.62l-7-7.17h-24.66l-7,7.17v19.07l5.25,5.07h39.88l14.87,14.52v37.61l-19.07,18.89h-41.98l-19.07-18.89v-22.39h20.12v13.82l7.52,7.52h24.84l7.52-7.52v-21.86l-5.25-5.25h-39.53l-15.22-15.04V24.31l18.02-18.19h42.85l18.19,18.19v18.72Z"/>
          <path class="cls-6" d="M541.02,26.24h-55.1v30.61h39.01v16.44h-39.01v35.33h55.27v19.94h-75.39V6.12h75.22v20.12Z"/>
          <path class="cls-6" d="M644.57,109.85l-18.72,18.72h-41.46l-18.72-18.72V6.12h19.94v93.93l8.57,8.57h22.39l8.57-8.57V6.12h19.42v103.73Z"/>
        </g>
      </g>
      <g>
        <path class="cls-3" d="M167.98,230.98c-2.3,0-4.64-.13-6.96-.39-5.07-.55-9.58-1.97-13.38-4.23-4.22-2.5-7.34-6.49-9.27-11.86-1.37-3.83-2.1-7-2.25-9.71-.12-2.29-.18-3.98-.18-5.16,0-2.44.13-4.89.38-7.29.23-2.66.54-5.48.9-8.3.38-2.92.96-5.88,1.72-8.8,3.84-15,8.99-29.79,15.31-43.92,6.25-13.98,12.97-27.87,19.97-41.29,3.1-5.84,6.25-11.7,9.39-17.43,3.15-5.76,6.49-11.58,9.94-17.28.62-1.12,1.29-2.24,2-3.32.77-1.2,1.67-2.38,2.66-3.51l.11-.13,2.25-2.25c2.24-2.24,4.61-2.71,6.2-2.71,3.14,0,6.81,1.91,7.75,7.24.53,2.45.8,4.87.8,7.19,0,.71-.06,1.86-.19,3.73-.18,2.53-1.31,5.39-3.44,8.74-2.62,4.21-5.13,8.62-7.43,13.05-2.38,4.58-4.75,9.12-7.13,13.64-3.98,7.49-7.77,15.1-11.28,22.64-3.56,7.65-7.11,15.32-10.67,23.03-1.6,3.43-3.29,7.43-5.04,11.91-1.75,4.49-3.39,9.13-4.88,13.77-1.51,4.69-2.85,9.4-4,14.01-1.1,4.41-1.89,8.53-2.34,12.25v.77c0,.56.13,1.58.75,3.22.19.5.59,1.26,1.87,2.03,2.7,1.43,5.16,2.28,7.31,2.5,2.66.28,5.78.42,9.27.42,4.21,0,8.48-.37,12.68-1.08,4.3-.74,8.6-1.74,12.76-2.98l10.63-3.06,1.42-.35,2.59-.74,1.4-.35c1.94-.51,3.79-1.14,5.44-1.87l.21-.09.22-.07c1.24-.41,2.33-.61,3.35-.61,3.86,0,6.73,2.62,7.4,6.7.26,1.08.43,1.99.51,2.76.08.83.12,1.35.12,1.76,0,1.25-.17,2.46-.52,3.59-.87,3.86-3.43,6.82-7.25,8.35-6.73,2.64-13.44,5.17-20,7.53-6.81,2.45-13.99,4.38-21.34,5.73-4.27.73-8.05,1.29-11.28,1.65-3.36.38-6.14.56-8.48.56Z"/>
        <path class="cls-1" d="M231.32,200c-.24-1.78-1.07-2.67-2.49-2.67-.48,0-1.07.12-1.78.36-1.9.83-3.98,1.54-6.23,2.14-.48.12-.95.24-1.42.36l-2.49.71c-.48.12-.95.24-1.42.36l-10.5,3.03c-4.39,1.31-8.84,2.34-13.34,3.11-4.51.77-9.02,1.16-13.52,1.16-3.68,0-6.94-.15-9.79-.44-2.85-.29-5.93-1.33-9.25-3.11-2.02-1.18-3.38-2.73-4.09-4.63-.71-1.9-1.07-3.56-1.07-4.98v-1.07c.47-4.03,1.3-8.42,2.49-13.17,1.18-4.74,2.55-9.52,4.09-14.32,1.54-4.8,3.2-9.49,4.98-14.06,1.78-4.56,3.5-8.63,5.16-12.19,3.56-7.71,7.12-15.39,10.68-23.04,3.56-7.65,7.35-15.27,11.39-22.86,2.37-4.51,4.74-9.04,7.12-13.61,2.37-4.57,4.92-9.04,7.65-13.43,1.66-2.61,2.55-4.74,2.67-6.41.12-1.66.18-2.79.18-3.38,0-2.02-.24-4.09-.71-6.23-.36-2.14-1.31-3.2-2.85-3.2-.95,0-1.84.42-2.67,1.25l-2.14,2.13c-.83.95-1.57,1.93-2.22,2.94-.65,1.01-1.28,2.05-1.87,3.11-3.44,5.69-6.73,11.42-9.88,17.17-3.14,5.75-6.26,11.54-9.34,17.35-7,13.41-13.61,27.08-19.84,41.01-6.23,13.94-11.24,28.32-15.03,43.15-.71,2.73-1.25,5.46-1.6,8.19-.36,2.73-.65,5.46-.89,8.18-.24,2.25-.36,4.51-.36,6.76,0,1.07.06,2.7.18,4.89.12,2.2.77,4.95,1.96,8.27,1.54,4.27,3.91,7.35,7.12,9.25,3.2,1.9,7,3.08,11.39,3.56,2.14.24,4.27.36,6.41.36s4.77-.18,7.92-.53c3.14-.36,6.79-.89,10.94-1.6,7.12-1.31,13.97-3.14,20.55-5.52,6.58-2.37,13.19-4.87,19.84-7.47,2.37-.95,3.79-2.61,4.27-4.98.24-.71.36-1.48.36-2.31,0-.24-.03-.65-.09-1.25-.06-.59-.21-1.36-.44-2.31Z"/>
        <path class="cls-3" d="M269.93,206.43c-3.38,0-6.48-1.07-9.2-3.18-2.64-2.05-4.56-4.9-5.71-8.48-.84-2.79-1.33-5.13-1.55-7.25-.2-1.96-.29-3.64-.29-5.12,0-1.36.06-2.8.18-4.3,0-.22,0-.44.01-.67-2.52,2.26-5.14,4.46-7.84,6.58-4.39,3.46-9.01,6.57-13.71,9.23-4.92,2.78-9.81,4.73-14.54,5.78l-.1.02c-1.5.3-2.97.45-4.36.45-4.56,0-8.88-1.61-12.84-4.77-2.07-1.55-3.58-3.79-4.49-6.67-1.11-2.56-1.73-4.81-1.89-6.87-.13-1.72-.19-3.07-.19-4.12,0-1.42.07-2.88.2-4.36v-.14c.54-4.45,1.69-8.94,3.45-13.36,1.72-4.32,3.88-8.48,6.42-12.37,2.57-3.93,5.58-7.52,8.94-10.69,3.41-3.21,7.2-5.9,11.28-8.01l.2-.1c1.74-.8,3.34-1.43,4.75-1.85,1.64-.49,3.27-.74,4.82-.74.75,0,1.51.06,2.28.19,2.41.1,4.56.91,6.24,2.36,1.5,1.3,2.65,2.94,3.42,4.86.63,1.58,1.07,3.28,1.29,5.04.21,1.57.31,3.01.31,4.29v.25c-.14,2.68-.52,5.3-1.12,7.78-.66,2.73-1.81,5.37-3.42,7.85-1.44,2.22-3.3,4.62-5.55,7.12-1.82,2.03-3.79,3.99-5.86,5.85,2.28-1.19,4.54-2.53,6.75-4,3.39-2.26,6.69-4.72,9.8-7.33,3.12-2.61,5.88-4.99,8.22-7.09.84-.84,1.72-1.64,2.67-2.43,1.41-4.74,3.05-9.31,4.88-13.6,2.13-4.99,4.4-8.79,6.93-11.61l.09-.1.45-.45c.73-.73,1.47-1.4,2.2-1.98,1.87-1.49,3.7-1.81,4.9-1.81.94,0,1.83.16,2.64.49,2.21.75,3.87,2.38,4.59,4.52.26.79.52,1.63.78,2.52l.05.18c.57,2.29.86,4.61.86,6.9,0,.92-.09,2.22-.3,4.09-.24,2.28-1.13,4.93-2.72,8.11l-.08.15c-1.36,2.5-2.45,5.18-3.23,7.96-.87,3.06-1.7,6.08-2.51,9.08-.24,1.3-.51,2.62-.8,3.91-.32,1.39-.66,2.78-1.03,4.13-.48,1.66-.6,2.61-.63,3.12-.05,1.01-.08,1.72-.08,2.14,0,.69.02,1.35.07,1.99.86-.39,1.78-.95,2.75-1.69,1.85-1.41,3.71-3.02,5.52-4.78,1.81-1.75,3.5-3.59,5.05-5.46,1.65-2.01,3.07-3.72,4.26-5.14,4.62-5.77,9.01-11.8,13.05-17.92,4.08-6.19,8.19-12.55,12.19-18.9l2.02-3.37c.46-.87,1.01-1.63,1.64-2.26,1.58-1.58,3.23-1.91,4.34-1.91.92,0,1.82.2,2.68.58,2.64,1.08,4.26,3.43,4.44,6.38.13.78.19,1.55.19,2.31,0,2.99-.93,5.94-2.76,8.77l-.08.13-.09.12c-1.55,2.1-2.98,4.26-4.25,6.42-1.34,2.27-2.66,4.59-3.93,6.9-1.08,2.05-2.71,4.83-4.94,8.41-2.15,3.47-4.69,7.29-7.54,11.35-2.79,3.98-5.83,8.11-9.03,12.27-3.25,4.23-6.58,8.12-9.89,11.55-3.42,3.55-6.83,6.49-10.11,8.75-3.86,2.65-7.59,3.99-11.1,3.99Z"/>
        <path class="cls-1" d="M326.68,133.82c1.3-2.02,1.96-4.03,1.96-6.05,0-.59-.06-1.18-.18-1.78,0-1.18-.48-1.96-1.42-2.31-.24-.12-.48-.18-.71-.18s-.51.15-.8.45-.56.68-.8,1.16l-2.13,3.56c-4.03,6.41-8.13,12.75-12.28,19.04-4.15,6.29-8.6,12.4-13.34,18.33-1.19,1.42-2.61,3.14-4.27,5.16-1.66,2.02-3.47,3.98-5.43,5.87-1.96,1.9-3.95,3.62-5.96,5.16-2.02,1.54-3.98,2.55-5.87,3.03h-1.07c-.95,0-1.81-.29-2.58-.89-.77-.59-1.16-1.6-1.16-3.02-.12-1.07-.18-2.19-.18-3.38,0-.47.03-1.27.09-2.4.06-1.13.33-2.52.8-4.18.36-1.3.68-2.61.98-3.92.29-1.3.56-2.61.8-3.91.83-3.08,1.69-6.2,2.58-9.34.89-3.14,2.1-6.14,3.65-8.99,1.3-2.61,2.05-4.74,2.22-6.41.18-1.66.27-2.85.27-3.56,0-1.9-.24-3.79-.71-5.69-.24-.83-.48-1.6-.71-2.31-.24-.71-.77-1.18-1.6-1.42-.24-.12-.53-.18-.89-.18-.59,0-1.19.24-1.78.71-.59.48-1.19,1.01-1.78,1.6l-.36.36c-2.13,2.37-4.15,5.78-6.05,10.23-1.9,4.45-3.56,9.13-4.98,14.06-.05.16-.09.32-.13.49-1.24.97-2.45,2.01-3.6,3.16-2.38,2.13-5.19,4.57-8.45,7.29-3.26,2.73-6.67,5.28-10.23,7.65-3.56,2.38-7.18,4.39-10.85,6.05-3.68,1.66-7.24,2.55-10.67,2.67h-.53c-2.97,0-5.46-1.07-7.47-3.2,2.49-.36,5.07-1.3,7.74-2.85,2.67-1.54,5.22-3.35,7.65-5.43,2.43-2.07,4.68-4.27,6.76-6.58,2.07-2.31,3.76-4.48,5.07-6.49,1.3-2.02,2.22-4.12,2.76-6.32.53-2.19.86-4.48.98-6.85,0-1.07-.09-2.28-.27-3.65-.18-1.36-.51-2.64-.98-3.83-.47-1.18-1.16-2.16-2.05-2.94-.89-.77-2.05-1.16-3.47-1.16-.59-.12-1.19-.18-1.78-.18-1.07,0-2.2.18-3.38.53-1.19.36-2.55.89-4.09,1.6-3.68,1.9-7.06,4.3-10.14,7.21-3.09,2.91-5.81,6.17-8.18,9.79-2.37,3.62-4.36,7.45-5.96,11.48-1.6,4.03-2.64,8.07-3.11,12.1-.12,1.31-.18,2.61-.18,3.91,0,.95.06,2.2.18,3.74.12,1.54.65,3.38,1.6,5.52.59,2.02,1.54,3.5,2.85,4.45,3.08,2.49,6.34,3.74,9.79,3.74,1.07,0,2.19-.12,3.38-.36,4.27-.95,8.66-2.7,13.17-5.25,4.51-2.55,8.87-5.49,13.08-8.81,4.21-3.32,8.18-6.79,11.92-10.41,2.1-2.03,4.05-4,5.87-5.9-.22,1.08-.43,2.16-.62,3.23-.83,4.69-1.25,8.45-1.25,11.3-.12,1.42-.18,2.79-.18,4.09s.09,2.85.27,4.63.62,3.86,1.33,6.23c.83,2.61,2.17,4.63,4,6.05,1.84,1.42,3.88,2.13,6.14,2.13,2.49,0,5.25-1.04,8.27-3.11,3.02-2.07,6.14-4.77,9.34-8.1,3.2-3.32,6.38-7.03,9.52-11.12,3.14-4.09,6.11-8.12,8.9-12.1,2.79-3.97,5.25-7.68,7.38-11.12,2.13-3.44,3.74-6.17,4.8-8.18,1.3-2.37,2.64-4.71,4-7.03,1.36-2.31,2.87-4.6,4.54-6.85ZM214.15,161.48c1.25-2.19,2.67-4.27,4.27-6.23s3.38-3.71,5.34-5.25c1.96-1.54,4.06-2.73,6.32-3.56.47-.24,1.07-.47,1.78-.71h.36c.95,0,1.42.3,1.42.89,0,.24-.06.53-.18.89-.36.95-.83,1.96-1.42,3.02-1.07,1.54-2.37,3.26-3.91,5.16-1.54,1.9-3.26,3.71-5.16,5.43-1.9,1.72-3.86,3.2-5.87,4.45-2.02,1.25-4.03,2.05-6.05,2.4.83-2.13,1.87-4.3,3.11-6.49Z"/>
        <path class="cls-3" d="M442.86,223.15c-1.32,0-2.57-.13-3.71-.4-.79-.18-1.68-.4-2.66-.64l-.16-.04-.16-.05c-4.57-1.47-7.75-3.79-9.44-6.9-1.47-2.69-2.21-5.38-2.21-8,0-1.59.23-3.32.68-5.13,1.49-6.23,4.53-11.86,9.02-16.69,3.34-3.59,6.89-6.83,10.58-9.67-1.87-1.29-3.47-2.74-4.81-4.33-1.48,1.62-3.01,3.22-4.58,4.79-2.23,2.35-4.42,4.68-6.49,6.93-2.21,2.39-4.57,4.72-7.03,6.94-3.2,3.08-6.49,6.13-9.78,9.06-3.47,3.1-7.34,5.94-11.5,8.46l-.2.11c-1.23.67-2.5,1.39-3.76,2.14-1.71,1.01-3.53,1.76-5.42,2.24l-.12.03c-1.41.32-2.86.48-4.3.48-.69,0-1.59-.07-2.81-.21-1.94-.23-3.89-1.14-5.93-2.78-1.35-.99-2.45-2.21-3.25-3.62-.64-1.12-1.14-2.33-1.49-3.59-1.1-2.8-1.67-5.21-1.75-7.33-.06-1.71-.09-2.96-.09-3.84,0-1.72.06-3.43.18-5.09.07-1.73.22-3.48.43-5.26-1.31,1.1-2.64,2.18-3.99,3.25-4.39,3.46-9.01,6.57-13.71,9.23-4.92,2.78-9.81,4.73-14.54,5.78l-.1.02c-1.5.3-2.97.45-4.36.45-4.56,0-8.88-1.61-12.84-4.78-2.07-1.55-3.58-3.79-4.49-6.67-1.11-2.56-1.73-4.81-1.89-6.87-.13-1.72-.19-3.07-.19-4.12,0-1.42.07-2.88.2-4.36v-.14c.54-4.45,1.69-8.94,3.45-13.36,1.72-4.32,3.88-8.48,6.42-12.37,2.57-3.93,5.58-7.52,8.94-10.69,3.41-3.21,7.2-5.9,11.28-8.01l.2-.1c1.74-.8,3.34-1.43,4.75-1.85,1.64-.49,3.27-.74,4.82-.74.75,0,1.51.06,2.28.19,2.41.1,4.56.91,6.24,2.36,1.5,1.3,2.65,2.94,3.42,4.86.63,1.58,1.07,3.28,1.29,5.04.21,1.57.31,3.01.31,4.29v.25c-.14,2.68-.52,5.3-1.12,7.78-.66,2.73-1.81,5.37-3.42,7.85-1.44,2.22-3.3,4.62-5.55,7.12-1.82,2.03-3.79,3.99-5.86,5.85,2.28-1.19,4.54-2.53,6.75-4,3.39-2.26,6.69-4.72,9.8-7.33,3.12-2.61,5.88-4.99,8.22-7.09.84-.84,1.74-1.65,2.72-2.47.58-1.38,1.17-2.73,1.75-4.04,2.95-6.56,6.15-13,9.52-19.13,3.32-6.05,6.53-11.62,9.54-16.57,1.93-3.14,4.31-6.77,7.09-10.81,2.77-4.04,5.79-8.16,8.99-12.25,3.23-4.14,6.64-8.08,10.13-11.7,3.66-3.79,7.25-6.78,10.67-8.88,1.12-.7,2.15-1.26,3.11-1.71,1.42-.66,2.88-.99,4.32-.99.8,0,1.64.09,2.57.27l.12.02.12.03c2.66.66,4.87,2.27,6.39,4.65l.08.13.07.13c.84,1.51,1.43,3.13,1.77,4.81.24,1.2.81,4.05.81,4.05v2.1c0,.07,0,.26.08.62l.11.53v.54c-.14,7.95-2.11,15.82-5.87,23.4-3.59,7.24-8.11,14.21-13.42,20.7-5.27,6.43-11.16,12.45-17.52,17.89-6.14,5.26-12.14,9.86-17.84,13.68-.21.33-.65,1.12-1.36,2.79-1.08,2.55-2.18,5.42-3.27,8.52-1.1,3.11-2.13,6.16-3.08,9.06-1.17,3.6-1.54,4.98-1.65,5.49-.34,1.5-.62,3.12-.83,4.85,2.02-.78,3.88-1.7,5.53-2.76,1.95-1.24,3.88-2.65,5.74-4.18l9.53-7.74.08-.06c.56-.42,1-.86,1.37-1.36.83-1.13,1.84-2.23,3.01-3.27l3.98-3.98,7.97-8.15,4.08-4.08,1.18-1.24c.26-.97.59-1.92.97-2.84,1.8-4.62,4.21-9.04,7.16-13.15,2.87-3.99,6.1-7.79,9.6-11.29,3.48-3.48,7.25-6.75,11.21-9.72,3.9-2.93,7.94-5.6,11.99-7.94,1.06-.66,2.13-1.26,3.18-1.78,1.14-.57,2.35-1.07,3.59-1.49,1.49-.55,2.79-.82,3.98-.82,1.07,0,2.17.26,3.36.78,2.33,1.04,3.51,3.29,4.28,5.14l.13.31.09.33c.58,2.2.88,4.78.88,7.69v.98c0,.7-.08,1.43-.24,2.18-.61,4.97-3.36,8.86-7.97,11.25l-.13.07c-6.08,2.93-12,6.56-17.57,10.78-4.8,3.64-9.03,7.86-12.59,12.58.15.14.32.28.5.43l.12.1.11.1c2.29,2.06,4.4,4.6,6.28,7.56,2.53-1.22,5.29-2.45,8.21-3.66,3.47-1.43,7.1-2.84,10.8-4.17,3.73-1.35,7.52-2.53,11.28-3.51,3.69-.97,7.17-1.71,10.36-2.21.79-.19,1.43-.27,2.04-.27,1.6,0,3.08.5,4.26,1.44,1.58,1.28,2.18,3.06,2.54,4.47.22.92.33,1.72.33,2.47,0,1.69-.48,3.3-1.38,4.65-.98,1.47-2.55,2.57-4.94,3.44l-.18.06c-6.12,1.97-12.13,4.16-17.85,6.53-5.66,2.35-11.32,5.1-16.81,8.19l-.2.11c-.3.15-.54.29-.73.41l-.6.4c.23,2.1.35,4.21.35,6.28,0,1.14-.06,2.75-.19,4.92-.16,2.67-1,5.64-2.58,9.09-1.05,2.35-2.42,4.79-4.05,7.21-1.67,2.47-3.6,4.77-5.73,6.84-2.25,2.17-4.77,3.99-7.51,5.4-3.02,1.55-6.21,2.33-9.49,2.33Z"/>
        <path class="cls-1" d="M509.58,156.06c-.24-.95-.51-1.54-.8-1.78-.3-.24-.68-.36-1.16-.36-.24,0-.6.06-1.07.18-3.09.48-6.44,1.19-10.05,2.13-3.62.95-7.24,2.08-10.85,3.38-3.62,1.31-7.15,2.67-10.59,4.09-3.44,1.42-6.58,2.85-9.43,4.27-1.19.59-1.96.95-2.31,1.07-.24,0-.77-.65-1.6-1.96-1.9-3.32-4.03-6.05-6.41-8.18-.59-.47-1.1-.95-1.51-1.42-.42-.47-.86-.95-1.33-1.42-.36-.47-.53-.89-.53-1.25,0-.47.18-.89.53-1.25,4.15-5.93,9.16-11.12,15.04-15.57,5.87-4.45,12.01-8.21,18.42-11.3,3.2-1.66,4.98-4.21,5.34-7.65.12-.47.18-.92.18-1.33v-.98c0-2.49-.24-4.63-.71-6.41-.59-1.42-1.16-2.25-1.69-2.49-.53-.24-.98-.36-1.33-.36-.59,0-1.37.18-2.31.53-1.07.36-2.08.77-3.02,1.25-.95.48-1.9,1.01-2.85,1.6-3.91,2.25-7.77,4.8-11.57,7.65-3.8,2.85-7.36,5.93-10.67,9.25s-6.35,6.88-9.07,10.68c-2.73,3.8-4.92,7.83-6.58,12.1-.47,1.11-.82,2.26-1.06,3.43l-2.14,2.26-4.09,4.09-8.01,8.18c-1.31,1.31-2.67,2.67-4.09,4.09-.95.83-1.75,1.69-2.4,2.58-.65.89-1.45,1.69-2.4,2.4l-9.43,7.65c-2.02,1.66-4.09,3.17-6.23,4.54-2.14,1.37-4.51,2.52-7.12,3.47-.83.24-1.66.36-2.49.36s-1.66-.12-2.49-.36c-.95-.36-1.42-.95-1.42-1.78v-.36c.24-3.2.65-6.11,1.25-8.72.24-1.07.83-3.05,1.78-5.96.95-2.91,1.99-5.96,3.11-9.16,1.13-3.2,2.25-6.14,3.38-8.81,1.13-2.67,2.05-4.24,2.76-4.72,5.69-3.79,11.62-8.33,17.79-13.61,6.17-5.28,11.8-11.03,16.9-17.26,5.1-6.23,9.37-12.81,12.81-19.75,3.44-6.94,5.22-14.03,5.34-21.26-.12-.59-.18-1.13-.18-1.6v-1.6c-.24-1.18-.48-2.37-.71-3.56-.24-1.18-.65-2.31-1.25-3.38-.83-1.3-1.96-2.14-3.38-2.49-.59-.12-1.13-.18-1.6-.18-.71,0-1.45.18-2.22.53-.77.36-1.63.83-2.58,1.42-3.09,1.9-6.32,4.6-9.7,8.1-3.38,3.5-6.64,7.27-9.79,11.3-3.14,4.03-6.08,8.04-8.81,12.01-2.73,3.98-5.04,7.5-6.94,10.59-2.97,4.87-6.11,10.32-9.43,16.37-3.32,6.05-6.44,12.31-9.34,18.77-.76,1.69-1.49,3.39-2.19,5.08-1.18.93-2.32,1.92-3.42,3.01-2.38,2.13-5.19,4.57-8.45,7.29-3.26,2.73-6.67,5.28-10.23,7.65-3.56,2.38-7.18,4.39-10.85,6.05-3.68,1.66-7.24,2.55-10.67,2.67h-.53c-2.97,0-5.46-1.07-7.47-3.2,2.49-.36,5.07-1.3,7.74-2.85,2.67-1.54,5.22-3.35,7.65-5.43,2.43-2.07,4.68-4.27,6.76-6.58,2.07-2.31,3.76-4.48,5.07-6.49,1.3-2.02,2.22-4.12,2.76-6.32.53-2.19.86-4.48.98-6.85,0-1.07-.09-2.28-.27-3.65-.18-1.36-.51-2.64-.98-3.83-.47-1.18-1.16-2.16-2.05-2.94-.89-.77-2.05-1.16-3.47-1.16-.59-.12-1.19-.18-1.78-.18-1.07,0-2.2.18-3.38.53-1.19.36-2.55.89-4.09,1.6-3.68,1.9-7.06,4.3-10.14,7.21-3.09,2.91-5.81,6.17-8.18,9.79-2.37,3.62-4.36,7.45-5.96,11.48-1.6,4.03-2.64,8.07-3.11,12.1-.12,1.31-.18,2.61-.18,3.91,0,.95.06,2.2.18,3.74.12,1.54.65,3.38,1.6,5.52.59,2.02,1.54,3.5,2.85,4.45,3.08,2.49,6.34,3.74,9.79,3.74,1.07,0,2.19-.12,3.38-.36,4.27-.95,8.66-2.7,13.17-5.25,4.51-2.55,8.87-5.49,13.08-8.81,4.21-3.32,8.18-6.79,11.92-10.41,1.26-1.22,2.45-2.41,3.62-3.59-.16.51-.34,1.03-.5,1.54-2.02,6.52-3.14,12.75-3.38,18.68-.12,1.54-.18,3.14-.18,4.8,0,.83.03,2.05.09,3.65.06,1.6.56,3.59,1.51,5.96.24.95.59,1.84,1.07,2.67.48.83,1.13,1.54,1.96,2.13,1.31,1.07,2.46,1.66,3.47,1.78,1.01.12,1.75.18,2.22.18,1.07,0,2.14-.12,3.2-.36,1.42-.36,2.79-.92,4.09-1.69,1.3-.77,2.61-1.51,3.92-2.22,3.91-2.37,7.5-5.01,10.76-7.92,3.26-2.91,6.49-5.9,9.7-8.99,2.37-2.14,4.63-4.36,6.76-6.67,2.14-2.31,4.33-4.65,6.58-7.03,2.01-2.02,3.94-4.06,5.78-6.14,1.09-1.23,2.17-2.51,3.24-3.81,1.1,3.54,3.36,6.51,6.81,8.88.36.24.71.53,1.07.89l2.14,1.6c.36.24.71.53,1.07.89.47.36.71.65.71.89,0,.36-.3.65-.89.89-.12,0-.18.03-.18.09s-.06.09-.18.09l-1.07.89c-4.39,3.09-8.54,6.73-12.46,10.94-3.91,4.21-6.52,9.05-7.83,14.5-.36,1.42-.53,2.73-.53,3.92,0,1.78.53,3.65,1.6,5.6s3.26,3.47,6.58,4.54c.95.24,1.81.44,2.58.62.77.18,1.63.27,2.58.27,2.49,0,4.89-.59,7.21-1.78,2.31-1.19,4.42-2.7,6.32-4.54,1.9-1.84,3.59-3.85,5.07-6.05,1.48-2.19,2.7-4.36,3.65-6.49,1.3-2.85,2.02-5.28,2.13-7.29.12-2.02.18-3.56.18-4.63,0-2.02-.12-4.03-.36-6.05v-1.07c0-.47.06-.98.18-1.51.12-.53.65-1.04,1.6-1.51.36-.24.71-.47,1.07-.71.36-.24.77-.47,1.25-.71,5.69-3.2,11.48-6.02,17.35-8.45,5.87-2.43,11.95-4.65,18.24-6.67,1.3-.47,2.13-.98,2.49-1.51.36-.53.53-1.16.53-1.87,0-.36-.06-.77-.18-1.25ZM410.66,132.39c1.78-3.2,3.85-6.64,6.23-10.32,2.37-3.68,4.92-7.44,7.65-11.3,2.73-3.85,5.37-7.38,7.92-10.59,2.55-3.2,4.86-5.96,6.94-8.27,2.07-2.31,3.71-3.76,4.89-4.36-.12,1.42-.33,2.79-.62,4.09-.3,1.31-.62,2.61-.98,3.91-3.2,8.66-7.92,16.7-14.14,24.11-6.23,7.42-12.9,13.97-20.02,19.66l-.53.53c-.12,0-.24.06-.36.18h-.53c.59-1.9,1.78-4.45,3.56-7.65ZM336.73,161.48c1.25-2.19,2.67-4.27,4.27-6.23s3.38-3.71,5.34-5.25c1.96-1.54,4.06-2.73,6.32-3.56.47-.24,1.07-.47,1.78-.71h.36c.95,0,1.42.3,1.42.89,0,.24-.06.53-.18.89-.36.95-.83,1.96-1.42,3.02-1.07,1.54-2.37,3.26-3.91,5.16-1.54,1.9-3.26,3.71-5.16,5.43-1.9,1.72-3.86,3.2-5.87,4.45-2.02,1.25-4.03,2.05-6.05,2.4.83-2.13,1.87-4.3,3.11-6.49ZM458.34,192c-2.73,5.58-7.06,9.14-12.99,10.68-1.07.24-2.13.36-3.2.36-.24,0-.74-.03-1.51-.09-.77-.06-1.87-.38-3.29-.98,2.49-4.27,5.6-7.83,9.34-10.68,3.74-2.85,7.5-5.69,11.3-8.54.83,1.66,1.27,2.91,1.33,3.74.06.83.09,1.37.09,1.6,0,1.31-.36,2.61-1.07,3.91Z"/>
      </g>
      <g>
        <rect x="206.32" y="229.38" width="106.99" height="26.99"/>
        <rect x="313.31" y="229.38" width="106.99" height="26.99"/>
        <text class="cls-4" transform="translate(319.96 250.13)"><tspan x="0" y="0">training</tspan></text>
        <rect class="cls-3" x="209.15" y="231.23" width="101.33" height="23.29"/>
        <text class="cls-2" transform="translate(215.95 250.13)"><tspan x="0" y="0">Cross</tspan></text>
      </g>
    </g>
  </g>
</svg>